<svg width="95" height="133" viewBox="0 0 95 133" fill="none" xmlns="http://www.w3.org/2000/svg">
<path fill-rule="evenodd" clip-rule="evenodd" d="M52.2124 59.6525L52.6732 58.7965C57.348 61.518 68.1723 68.0539 74.0718 72.4257C74.0279 76.1129 73.6372 85.8311 72.4257 95.2069C71.877 99.8817 69.6209 111.47 64.9856 120.424C67.6412 116.891 73.5714 107.058 76.047 95.997C76.9029 92.8586 78.8519 83.4345 79.8 70.8455C74.7521 67.9266 62.3651 61.2195 53.2 57.7431L53.8584 56.3604C60.6401 58.2259 76.4816 62.9577 85.594 66.9609C85.3965 71.7015 84.2245 84.1455 81.1168 95.997C79.5112 102.12 75.0857 117.883 62.5495 133C62.7223 132.822 62.9325 132.61 63.1791 132.361C65.8454 129.675 72.7602 122.707 82.4995 107.519C87.3717 98.499 90.598 88.096 94.6802 63.3396C85.0673 60.2451 71.9648 56.8213 54.2534 54.9777L54.7802 53.9243C61.3643 53.5731 76.7449 53.3317 85.594 55.1752C86.6036 48.4375 86.2393 32.8023 78.2856 24.1639C80.0414 28.9703 83.3159 40.8876 80.7876 50.1054C74.3571 50.0616 60.1923 50.3293 54.9777 51.7515L54.1218 50.6322C57.9845 48.3277 66.8028 43.5213 71.1747 42.7312C71.189 42.6259 71.2034 42.5199 71.2179 42.4132C72.4733 33.1789 74.4444 18.6807 61.101 0C64.3272 6.65 69.5418 22.7022 66.1708 39.505L53.0683 49.052L52.0807 47.6693L56.097 43.5213C55.3727 42.3361 53.2131 39.6893 50.3688 38.5832C51.7295 40.2073 53.5687 43.7978 50.0396 45.1673H44.8381C43.3237 44.7723 41.1378 42.9024 44.5089 38.5832C43.1262 39.2196 40.0843 41.0983 38.9782 43.5213L42.0069 47.1426L41.3485 48.4594L28.7069 39.5708C27.2145 33.1403 25.9942 16.2365 33.0525 0.0658416C32.4846 1.1115 31.938 2.10841 31.4131 3.06557C24.2713 16.0908 21.1657 21.7548 23.3738 42.7312C25.8538 43.2579 32.5652 45.5492 39.5708 50.5005L39.1757 51.3564C33.1622 50.7858 19.6735 49.7631 13.8267 50.2371C12.8172 45.5404 11.891 33.7504 16.2629 24.1639C9.3495 33.9084 7.96683 41.0193 9.15198 55.3728C14.134 54.4071 27.1136 52.7654 39.1757 53.9243L39.5708 54.9777C30.7041 56.097 10.3766 59.3364 0 63.3396C0.290547 64.8956 0.572603 66.4214 0.8491 67.9171C3.3922 81.6737 5.46506 92.8867 9.3495 101.725C15.9341 114.388 21.5566 120.893 28.3962 128.807C29.5584 130.151 30.7558 131.537 31.999 133C21.3985 118.317 10.4161 99.8817 9.15198 66.9609C16.1312 64.1736 32.2624 58.1513 40.9535 56.3604L41.546 57.7431C34.4351 60.7498 19.0941 67.5535 15.1436 70.7139C15.1872 71.2996 15.2301 71.8878 15.2732 72.4788C16.2719 86.1686 17.3758 101.3 29.4312 120.424C25.6782 112.194 21.438 102.818 20.5426 72.4257C25.7441 68.9361 37.319 61.3249 42.0069 58.7965L42.5337 59.6525C40.1634 61.1668 34.659 64.9725 31.604 68.0802C31.4064 69.3531 31.1299 74.0981 31.604 82.8946C33.8645 86.9987 40.1765 95.8785 47.3401 98.5648C51.0053 97.0724 59.2443 91.849 62.8787 82.8946C63.164 80.7876 63.6688 74.9014 63.4054 68.2119C61.2107 66.2147 55.8995 61.7067 52.2124 59.6525ZM40.361 63.0762L40.3336 63.0989C38.9364 64.252 35.7687 66.8666 34.3036 68.5411C34.3255 71.2845 34.5274 77.5482 34.8961 80.3926C36.5422 83.6408 41.5066 90.8087 47.406 93.4951C50.4347 91.9149 57.4666 86.8714 59.7842 80.3926C59.7962 80.266 59.8094 80.1278 59.8237 79.9789C60.0438 77.6753 60.5085 72.812 60.5085 68.8045C59.2136 67.4218 56.2156 64.3404 54.5828 63.0762C55.3948 64.1297 57.3086 66.7502 58.4674 68.8045C58.5772 70.0993 58.505 73.3069 58.0724 76.047C57.6773 78.549 54.3194 85.4624 47.406 88.3594C44.3115 87.0833 37.9644 82.8343 36.8055 76.047C36.608 75.1253 36.2525 72.5838 36.4105 69.002C37.106 67.9356 38.3239 66.1182 39.3055 64.6535C39.7177 64.0382 40.0883 63.4852 40.361 63.0762Z" fill="white"/>
</svg>
